<svg xmlns="http://www.w3.org/2000/svg" version="1.1" xmlns:xlink="http://www.w3.org/1999/xlink" xmlns:svgjs="http://svgjs.com/svgjs" width="512" height="512" x="0" y="0" viewBox="0 0 512 512" style="enable-background:new 0 0 512 512" xml:space="preserve" class=""><g><g xmlns="http://www.w3.org/2000/svg"><path d="m512 256c0 141.38-114.62 256-256 256-66.36 0-126.83-25.26-172.32-66.67-2.965-2.705 5.198-16.538 2.363-19.373s-16.668 5.328-19.373 2.363c-41.41-45.49-66.67-105.96-66.67-172.32 0-141.38 114.62-256 256-256s256 114.62 256 256z" fill="#62dbfb" data-original="#62dbfb" class=""></path><g><g><path d="m466.44 226.44c-3.9-1.91-8.28-2.98-12.91-2.98-16.26 0-29.43 13.18-29.43 29.43 0 6.8 2.3 13.05 6.17 18.03-10.27 4.59-17.43 14.89-17.43 26.87 0 5.96 1.78 11.51 4.83 16.14-7.55 9.55-15.73 18.77-24.55 27.59-82.41 82.37-199.08 109.48-304.11 81.43-28.01-105.02-.94-221.7 81.47-304.07 18.63-18.62 39-34.42 60.6-47.38 2.32 13.93 14.43 24.55 29.02 24.55 6.47 0 12.45-2.1 17.3-5.63 5.03 9.02 14.66 15.12 25.72 15.12 16.26 0 29.43-13.17 29.43-29.43 0-1.38-.1-2.74-.28-4.07 13.01-3.04 22.71-14.71 22.71-28.65 0-5.04-1.27-9.78-3.49-13.92 41.02-5.43 82.91-2.77 123.09 7.95 16.57 62.09 13.86 128.27-8.14 189.02z" fill="#6fd7a3" data-original="#6fd7a3"></path><path d="m474.58 37.42-385.57 385.53c-28.01-105.02-.94-221.7 81.47-304.07 18.63-18.62 39-34.42 60.6-47.38 2.32 13.93 14.43 24.55 29.02 24.55 6.47 0 12.45-2.1 17.3-5.63 5.03 9.02 14.66 15.12 25.72 15.12 16.26 0 29.43-13.17 29.43-29.43 0-1.38-.1-2.74-.28-4.07 13.01-3.04 22.71-14.71 22.71-28.65 0-5.04-1.27-9.78-3.49-13.92 41.02-5.43 82.91-2.77 123.09 7.95z" fill="#3ec3a4" data-original="#3ec3a4"></path></g><path d="m402.07 218.71c-.05 6.64-5.48 11.98-12.13 11.93l-90.8-.76-54.74 54.73 114.32.96c6.65.05 11.99 5.48 11.93 12.13-.05 6.64-5.48 11.98-12.13 11.93l-137.98-1.16-46.63 46.64 67.14.56c6.64.06 11.99 5.49 11.93 12.13s-5.49 11.99-12.13 11.93l-90.81-.76-66.36 66.36c-5.93-5.41-11.6-11.08-17.01-17.01l66.36-66.36-.76-90.81c-.05-6.64 5.29-12.07 11.93-12.13 6.64-.05 12.08 5.29 12.13 11.93l.56 67.15 46.64-46.64-1.15-137.98c-.06-6.64 5.28-12.07 11.93-12.13 6.64-.06 12.07 5.28 12.13 11.93l.95 114.32 54.74-54.74-.76-90.8c-.06-6.64 5.28-12.07 11.93-12.13 6.64-.06 12.07 5.28 12.13 11.93l.56 67.14 50.12-50.12c4.69-4.69 12.31-4.69 17.01 0 4.7 4.7 4.7 12.32 0 17.02l-50.12 50.12 67.14.56c6.65.05 11.99 5.48 11.93 12.13z" fill="#0bb494" data-original="#0bb494"></path></g><g><path d="m157.174 187.284c-.58 0-1.167-.046-1.758-.141l-38.468-6.195c-5.638-.907-9.638-5.986-9.2-11.68l2.94-38.216c.465-6.045 5.752-10.563 11.787-10.104 6.045.465 10.569 5.742 10.104 11.788l-2.164 28.142 28.493 4.588c5.986.964 10.057 6.598 9.093 12.584-.871 5.395-5.532 9.234-10.827 9.234z" fill="#7a6d79" data-original="#7a6d79"></path><path d="m246.762 187.284c-5.295 0-9.956-3.839-10.826-9.234-.964-5.986 3.107-11.619 9.093-12.584l28.493-4.588-2.164-28.142c-.465-6.045 4.059-11.322 10.104-11.788 6.042-.463 11.323 4.059 11.787 10.104l2.94 38.216c.437 5.694-3.562 10.772-9.2 11.68l-38.468 6.195c-.592.095-1.18.141-1.759.141z" fill="#7a6d79" data-original="#7a6d79"></path><path d="m185.641 138.147c-5.27 0-9.921-3.805-10.816-9.175l-7.755-46.537-22.819-9.362c-5.609-2.301-8.29-8.714-5.99-14.323 2.303-5.609 8.71-8.29 14.324-5.99l28.475 11.682c3.516 1.442 6.037 4.602 6.662 8.351l8.761 52.568c.996 5.98-3.044 11.637-9.025 12.633-.61.104-1.218.153-1.817.153z" fill="#685e68" data-original="#685e68" class=""></path><path d="m218.295 138.147c-.599 0-1.206-.049-1.817-.151-5.981-.996-10.02-6.653-9.025-12.633l8.761-52.568c.625-3.749 3.145-6.909 6.662-8.351l28.475-11.682c5.61-2.304 12.022.381 14.324 5.99 2.301 5.609-.381 12.021-5.99 14.323l-22.819 9.362-7.755 46.537c-.896 5.368-5.547 9.173-10.816 9.173z" fill="#685e68" data-original="#685e68" class=""></path><circle cx="201.968" cy="145.422" fill="#7a6d79" r="40.158" data-original="#7a6d79"></circle><path d="m216.94 182.692c-4.63 1.87-9.68 2.89-14.97 2.89-22.18 0-40.16-17.98-40.16-40.16s17.98-40.16 40.16-40.16c5.29 0 10.34 1.02 14.97 2.89-14.77 5.92-25.2 20.38-25.2 37.27s10.43 31.351 25.2 37.27z" fill="#685e68" data-original="#685e68" class=""></path><path d="m180.378 220.415h43.18c19.555 0 35.408-15.853 35.408-35.408 0-19.555-15.853-35.408-35.408-35.408h-43.18c-19.555 0-35.408 15.853-35.408 35.408 0 19.555 15.852 35.408 35.408 35.408z" fill="#b98080" data-original="#b98080" class=""></path><path d="m189.918 210.039c6.41 6.41 15.27 10.37 25.04 10.37h-34.58c-9.78 0-18.63-3.96-25.04-10.37-6.41-6.4-10.37-15.26-10.37-25.03 0-19.56 15.85-35.41 35.41-35.41h34.58c-19.55 0-35.41 15.85-35.41 35.41 0 9.77 3.96 18.63 10.37 25.03z" fill="#ae6c6c" data-original="#ae6c6c"></path><g fill="#7a6d79"><path d="m115.08 329.792c-5.874.001-10.742-4.648-10.963-10.568l-1.431-38.302c-.213-5.707 3.984-10.623 9.653-11.309l38.683-4.675c6.028-.733 11.488 3.562 12.216 9.581s-3.562 11.488-9.581 12.215l-28.653 3.463 1.054 28.206c.226 6.059-4.502 11.154-10.561 11.38-.14.007-.279.009-.417.009z" fill="#7a6d79" data-original="#7a6d79"></path><path d="m80.624 261.527c-2.107 0-4.236-.605-6.115-1.869-5.032-3.383-6.368-10.204-2.986-15.235l21.385-31.809c3.186-4.739 9.474-6.244 14.46-3.461l34.025 18.987c5.294 2.955 7.191 9.641 4.237 14.936-2.955 5.294-9.641 7.192-14.936 4.237l-25.202-14.064-15.748 23.424c-2.119 3.152-5.588 4.854-9.12 4.854z" fill="#7a6d79" data-original="#7a6d79"></path><path d="m288.856 329.792c-.139 0-.278-.003-.417-.008-6.059-.227-10.787-5.322-10.561-11.38l1.054-28.206-28.652-3.463c-6.018-.727-10.309-6.196-9.581-12.215.727-6.018 6.193-10.307 12.216-9.581l38.682 4.675c5.669.685 9.866 5.602 9.653 11.309l-1.431 38.302c-.221 5.918-5.091 10.567-10.963 10.567z" fill="#7a6d79" data-original="#7a6d79"></path><path d="m323.311 261.527c-3.532.001-7-1.702-9.12-4.854l-15.748-23.424-25.202 14.064c-5.294 2.956-11.98 1.058-14.936-4.237-2.955-5.294-1.057-11.981 4.237-14.936l34.025-18.987c4.985-2.781 11.273-1.278 14.46 3.461l21.385 31.809c3.382 5.032 2.047 11.853-2.986 15.235-1.879 1.264-4.008 1.869-6.115 1.869z" fill="#7a6d79" data-original="#7a6d79"></path></g><g><path d="m176.658 306.776c-31.81 0-57.596-25.787-57.596-57.596v-33.946c0-22.894 18.559-41.453 41.453-41.453 22.894 0 41.453 18.559 41.453 41.453v66.233c0 13.977-11.332 25.309-25.31 25.309z" fill="#fd4755" data-original="#fd4755"></path><path d="m227.278 306.776c-13.978 0-25.31-11.332-25.31-25.31v-66.233c0-22.894 18.559-41.453 41.453-41.453 22.894 0 41.453 18.559 41.453 41.453v33.946c0 31.81-25.787 57.597-57.596 57.597z" fill="#fe646f" data-original="#fe646f"></path></g><g><path d="m243.86 272.095c-6.351 0-11.499-5.148-11.499-11.499v-52.568c0-6.351 5.148-11.499 11.499-11.499 6.351 0 11.499 5.148 11.499 11.499v52.568c0 6.351-5.148 11.499-11.499 11.499z" fill="#fd4755" data-original="#fd4755"></path><path d="m160.076 272.095c-6.351 0-11.499-5.148-11.499-11.499v-52.568c0-6.351 5.148-11.499 11.499-11.499 6.351 0 11.499 5.148 11.499 11.499v52.568c0 6.351-5.148 11.499-11.499 11.499z" fill="#fe646f" data-original="#fe646f"></path></g></g><g fill="#62dbfb"><circle cx="363.96" cy="87.121" r="14.879" fill="#62dbfb" data-original="#62dbfb" class=""></circle><circle cx="393.223" cy="266.029" r="18.095" fill="#62dbfb" data-original="#62dbfb" class=""></circle></g></g></g></svg>