<svg xmlns="http://www.w3.org/2000/svg" version="1.1" xmlns:xlink="http://www.w3.org/1999/xlink" xmlns:svgjs="http://svgjs.com/svgjs" width="512" height="512" x="0" y="0" viewBox="0 0 512 512" style="enable-background:new 0 0 512 512" xml:space="preserve" class=""><g><g xmlns="http://www.w3.org/2000/svg"><g><path d="m256 305.814c-141.387 0-244.016-138.451-223.018-175.6 43.939-77.739 127.349-130.214 223.018-130.214 95.899 0 179.481 52.729 223.336 130.776 20.801 37.02-81.949 175.038-223.336 175.038z" fill="#d85e91" data-original="#d85e91" class=""></path><path d="m512 256c0 26.051-3.891 51.191-11.129 74.871-5.031 16.469-11.672 32.231-19.75 47.109-8.25 15.2-147.391 46.869-225.121 46.869s-216.871-31.669-225.109-46.869c-3.289-6.031-6.332-12.21-9.121-18.531-14-31.629-21.77-66.629-21.77-103.449 0-46.219 12.25-89.57 33.68-127 44.121 77.07 127.16 129 222.32 129s178.211-51.93 222.32-129c21.43 37.43 33.68 80.781 33.68 127zm0 0" fill="#c43071" data-original="#c43071" class=""></path><path d="m481.262 377.699c-7.16 13.223-15.434 25.742-24.723 37.43-6.388 8.05-13.259 15.701-20.56 22.915-2.343 2.315-50.535 40.603-75.887 51.902-31.803 14.175-67.029 22.054-104.092 22.054-40.31 0-78.445-9.32-112.368-25.922-3.961-1.938-5.974-19.691-9.817-21.825-4.352-2.417-10.516 10.759-14.708 8.101-12.789-8.11-24.809-17.322-35.927-27.503-10-9.153-19.282-19.09-27.719-29.723-9.289-11.688-17.563-24.207-24.723-37.43h450.524zm0 0" fill="#881155" data-original="#881155" class=""></path></g><g><path d="m350.658 258.875-94.658 4.398-30.444 1.415-93.351 60.493-12.934 61.432v72.096l49.667-52.801 87.062-10.181 100.472-11.751z" fill="#80cf8c" data-original="#80cf8c" class=""></path><path d="m178.925 294.981-46.72 30.2-12.934 61.432v72.096l49.667-52.801 9.941-1.193z" fill="#b3ef69" data-original="#b3ef69" class=""></path><path d="m350.658 258.875-94.658 4.398v132.454l100.472-11.751z" fill="#599d8a" data-original="#599d8a" class=""></path><g><path d="m361.176 469.226h-67.461l-45.151-45.151 14.872-14.873 38.989 38.989h58.751z" fill="#cbdee7" data-original="#cbdee7"></path></g><g><path d="m248.564 255.793-38.989-38.989h-58.751v-21.035h67.461l45.151 45.152z" fill="#e5f7fe" data-original="#e5f7fe"></path></g><path d="m350.658 490.262h8.695c28.488-12.587 54.246-30.214 76.147-51.757v-11.348h-84.842z" fill="#8ab8ec" data-original="#8ab8ec"></path><g><path d="m161.342 237.84h-84.842v-63.105h84.842z" fill="#d1f9f6" data-original="#d1f9f6" class=""></path></g><g><path d="m161.342 237.84h-48.01v-63.105h48.01z" fill="#abecfe" data-original="#abecfe" class=""></path></g><path d="m287.553 237.84h-31.553-31.553c-57.991 0-105.176 47.185-105.176 105.176v43.598c19.24-30.71 50.061-53.473 86.557-61.433l19.728-39.458 18.817 9.408-13.528 27.058c1.382-.041 2.73-.209 4.12-.209h21.035 10.518c23.202 0 42.07-18.868 42.07-42.077h21.035c0 34.805-28.307 63.113-63.105 63.113h-10.518-21.035c-15.39 0-30.058 3.081-43.503 8.561l27.172 13.583-9.408 18.817-40.287-20.139c-29.977 20.927-49.667 55.62-49.667 94.871v13.744c8.045 5.093 16.39 9.753 25.009 13.94 10.839-34.122 42.673-59.236 80.167-59.236h31.552 31.553c57.99 0 105.176-47.185 105.176-105.176v-168.983h-21.035c-.001 46.394-37.747 84.842-84.141 84.842z" fill="#b3ef69" data-original="#b3ef69" class=""></path><path d="m178.879 334.159v-85.926c-35.237 17.011-59.608 53.106-59.608 94.782v43.598c14.288-22.805 34.966-41.221 59.608-52.454z" fill="#d9f484" data-original="#d9f484" class=""></path><path d="m119.271 458.709v13.744c8.046 5.093 16.391 9.753 25.011 13.94 5.991-18.839 18.383-34.929 34.597-45.564v-72.022l-9.941-4.969c-29.977 20.927-49.667 55.62-49.667 94.871z" fill="#d9f484" data-original="#d9f484" class=""></path><path d="m392.728 321.98v-168.982h-21.035c0 46.394-37.746 84.842-84.141 84.842h-31.552v84.141h10.518c23.202 0 42.07-18.868 42.07-42.077h21.035c0 34.805-28.307 63.113-63.105 63.113h-10.518v84.141h31.553c57.99-.002 105.175-47.187 105.175-105.178z" fill="#80cf8c" data-original="#80cf8c" class=""></path></g><g fill="#fff"><path d="m374.231 79.275h-1.524c-6.754 0-12.226-5.477-12.226-12.227v-1.523h-8.715v1.523c0 6.75-5.477 12.227-12.227 12.227h-1.527v8.715h1.527c6.75 0 12.227 5.472 12.227 12.226v1.528h8.715v-1.528c0-6.754 5.472-12.226 12.226-12.226h1.524zm0 0" fill="#ffffff" data-original="#ffffff"></path><path d="m297.575 134.371h-1.524c-6.754 0-12.226-5.477-12.226-12.227v-1.523h-8.715v1.523c0 6.75-5.477 12.227-12.227 12.227h-1.527v8.715h1.527c6.75 0 12.227 5.472 12.227 12.226v1.528h8.715v-1.528c0-6.754 5.472-12.226 12.226-12.226h1.524zm0 0" fill="#ffffff" data-original="#ffffff"></path><path d="m229.302 61.308h-1.524c-6.754 0-12.226-5.477-12.226-12.227v-1.523h-8.715v1.523c0 6.75-5.477 12.227-12.227 12.227h-1.527v8.715h1.527c6.75 0 12.227 5.472 12.227 12.226v1.528h8.715v-1.528c0-6.754 5.472-12.226 12.226-12.226h1.524zm0 0" fill="#ffffff" data-original="#ffffff"></path><path d="m139.471 109.218h-1.524c-6.754 0-12.226-5.477-12.226-12.227v-1.523h-8.715v1.523c0 6.75-5.477 12.227-12.227 12.227h-1.527v8.715h1.527c6.75 0 12.227 5.472 12.227 12.226v1.528h8.715v-1.528c0-6.754 5.472-12.226 12.226-12.226h1.524zm0 0" fill="#ffffff" data-original="#ffffff"></path></g></g></g></svg>