<svg xmlns="http://www.w3.org/2000/svg" version="1.1" xmlns:xlink="http://www.w3.org/1999/xlink" xmlns:svgjs="http://svgjs.com/svgjs" width="512" height="512" x="0" y="0" viewBox="0 0 489.636 489.636" style="enable-background:new 0 0 512 512" xml:space="preserve" class=""><g><g xmlns="http://www.w3.org/2000/svg"><path d="m213.512 153.206c-1.47 5.82-2.99 11.61-4.54 17.37-8.79 32.82-18.33 64.79-24.86 98.45v.01c-1.15 5.95-2.21 11.95-3.16 18.03v.01c-5.02 32.19-6.8 66.25-2.25 104.229.78 6.6 1.76 13.32 2.96 20.17v.01c4.2 24.27 11.01 50.15 21.16 78.15-122.27-60.43-170.2-177.44-154.7-279.95 1.77-11.71 7.06-41.31 10.29-52.36l32.01 7.85s62.8-125.52 139.9-165.17c3.95 58.081-5.06 106.881-16.81 153.201z" fill="#85ce64" data-original="#85ce64" class=""></path><path d="m392.313 449.47c-14.08 11.56-29.6 18.95-45.47 22.63-64.32 14.96-134.5-30.69-138.56-104.4-7.45-135.42 63.56-222.6 53.7-367.7 144.48 100.18 250.19 351.04 130.33 449.47z" fill="#85ccf8" data-original="#85ccf8" class=""></path><path d="m346.843 472.1c-64.32 14.96-134.5-30.69-138.56-104.4-7.45-135.42 63.56-222.6 53.7-367.7 23.52 58.91 46.02 193.9 28.02 285.4-18 91.49 4.14 179.91 56.81 186.7z" fill="#75b3da" data-original="#75b3da" class=""></path><g fill="#75bb61"><path d="m181.662 411.476c-2.76-1.57-21.38-12.69-41.66-36.85-19.68-23.45-44.82-64.3-52.8-125.76-.53-4.11 2.36-7.87 6.47-8.4 4.11-.54 7.87 2.36 8.4 6.47 7.47 57.49 30.74 95.62 48.94 117.48 10.48 12.57 20.53 21.37 27.69 26.89.78 6.6 1.76 13.32 2.96 20.17z" fill="#75bb61" data-original="#75bb61"></path><path d="m184.112 269.026v.01c-1.15 5.95-2.21 11.95-3.16 18.03-6.84-6.13-47.32-44.7-47.32-97.66 0-4.15 3.36-7.5 7.5-7.5 4.15 0 7.5 3.35 7.5 7.5 0 36.58 23.14 66.36 35.48 79.62z" fill="#75bb61" data-original="#75bb61"></path><path d="m213.512 153.206c-1.47 5.82-2.99 11.61-4.54 17.37-5.6-5.48-28.84-30.22-28.84-63.67 0-4.14 3.36-7.5 7.5-7.5s7.5 3.36 7.5 7.5c0 20.22 10.95 37.14 18.38 46.3z" fill="#75bb61" data-original="#75bb61"></path></g><ellipse cx="392.746" cy="327.396" fill="#9edefd" rx="26.249" ry="43.498" data-original="#9edefd" class=""></ellipse></g></g></svg>